<?xml version="1.0" encoding="iso-8859-1"?>
<!-- Generator: Adobe Illustrator 16.0.0, SVG Export Plug-In . SVG Version: 6.00 Build 0)  -->
<!DOCTYPE svg PUBLIC "-//W3C//DTD SVG 1.1//EN" "http://www.w3.org/Graphics/SVG/1.1/DTD/svg11.dtd">
<svg xmlns="http://www.w3.org/2000/svg" xmlns:xlink="http://www.w3.org/1999/xlink" version="1.1" id="Capa_1" x="0px" y="0px" width="512px" height="512px" viewBox="0 0 485.213 485.212" style="enable-background:new 0 0 485.213 485.212;" xml:space="preserve">
<g>
	<path d="M424.562,212.282h-60.653H242.607v-90.978C242.607,54.434,188.206,0,121.305,0C54.419,0,0.001,54.434,0.001,121.304v90.978   h60.651v-90.978c0-33.465,27.205-60.653,60.653-60.653c33.435,0,60.651,27.188,60.651,60.653v90.978   c-33.493,0-60.651,27.158-60.651,60.648v151.629c0,33.5,27.158,60.653,60.651,60.653h242.606c33.491,0,60.649-27.153,60.649-60.653   V272.93C485.212,239.439,458.054,212.282,424.562,212.282z M318.424,359.257v50.139c0,8.382-6.786,15.163-15.168,15.163   c-8.377,0-15.158-6.781-15.158-15.163v-50.139c-8.887-5.269-15.164-14.57-15.164-25.673c0-16.765,13.562-30.327,30.322-30.327   c16.765,0,30.331,13.562,30.331,30.327C333.587,344.687,327.306,353.989,318.424,359.257z" fill="#1e2c47"/>
</g>
<g>
</g>
<g>
</g>
<g>
</g>
<g>
</g>
<g>
</g>
<g>
</g>
<g>
</g>
<g>
</g>
<g>
</g>
<g>
</g>
<g>
</g>
<g>
</g>
<g>
</g>
<g>
</g>
<g>
</g>
</svg>
